<?xml version="1.0" encoding="UTF-8"?>
<svg id="Layer_1" xmlns="http://www.w3.org/2000/svg" version="1.1" viewBox="0 0 595.3 841.9">
  <!-- Generator: Adobe Illustrator 30.3.0, SVG Export Plug-In . SVG Version: 2.1.3 Build 182)  -->
  <defs>
    <style>
      .st0 {
        fill: #231f20;
      }
    </style>
  </defs>
  <path id="path1-6" class="st0" d="M319.6,389.4s.5,0,1,.5c.5,0,1,.5,1.5,1,1.5,1.5,3,3,3.5,5,2,5,.5,11-2,16-1.5,3-3.5,5.5-5.5,7.5-3.5,3.5-7.5,6.5-12,9-1.5,1-3.5,1.5-5,2.5-1,0-2,1-3.5,1.5-1,0-2,.5-3,1h-5.5c-3,0-6.5-.5-9-3.5,0,0-.5-1-1-1.5,0-.5,0-1.5-.5-2.5v4c0,1,1,2,2,3,1.5,1,3,2,5,2,3,.5,6.5,0,9.5,0,3-.5,5.5-1.5,8-3,.5,0,1.5-.5,2-1,5-2.5,9.5-6,13.5-9.5,2.5-2,4.5-4.5,6-7.5.5-1,1-2,1.5-3,1.5-4,3-8,2-12.5,0-1,0-1.5-1-2.5-.5-1-1-2.5-2-3.5s-2-1.5-3-2c-.5,0-1.5-.5-2-1h-1M266.6,413.9s0-.5.5-1c0-.5,1-1,1.5-1.5,2-2,3.5-3.5,5.5-5,3.5-3,7.5-5.5,12-7.5,5-2,10-4,15-4.5,2,0,4,0,6,.5,1.5,0,3,1,4.5,2,1,.5,2,1.5,3,2.5s1,1.5,1,2v1.5c1,5-1.5,9.5-4.5,13.5-.5.5-1.5,1.5-2,2-1,1-2,1.5-3,2.5-4,3-8.5,5.5-14,5.5s-2.5,0-3.5-1-1-2.5-.5-3.5c0,0,0-1,.5-1,0,.5,1,1,1.5,1.5,2.5,2.5,6,2.5,9,1,1.5-1,3-2.5,3.5-4v-2l.5-.5s1-1,1-1.5c1.5-2,3-4,3-6.5s-.5-3-1.5-4c-.5-.5-1.5-1-2.5-1h-4.5c-2,0-4,0-6,1-2.5.5-4.5,2-6.5,3-4.5,2.5-8,6-11,10-2,3-4,6.5-4.5,10v3.5c0,1,.5,2,1,2.5,0,.5,1,1.5,1,2,2,2,4,3.5,7,4.5h1c2,0,4,.5,6,.5,4,0,8-1,12-2.5,6.5-2.5,12-5.5,17.5-10,2-1.5,4-3.5,6-6,0-.5,1-1,1.5-1.5,0,0,.5-.5,1-1,0,0-.5.5-1,1-.5.5-1.5,1.5-2,2-1.5,2-3.5,3.5-5.5,5-4.5,4-10,7-16,9-4.5,1.5-9,3-14,2.5-1.5,0-3.5,0-5-1h-.5c-1,0-2-1-2.5-1.5-2-1.5-3.5-3.5-4-6v-2.5c0-1.5,0-3,1-4.5,1-3,3-5.5,5-7.5,3-3,6.5-6,10.5-7.5,2-1,4.5-1.5,7-1.5h2.5c1,0,2,1.5,2,2.5v2h0v-.5l-1.5-1.5c-2-1.5-5.5-2-8-1-1.5,1-3,2-3.5,4v2l-.5.5-1.5,1.5c-1.5,1.5-3,4-3,6.5s0,3,1.5,4c0,0,1,.5,1,1,.5,0,1.5.5,2,.5h3.5c2,0,4-.5,6.5-1,2-.5,4-1.5,6-3,4.5-2.5,9-6.5,12-11,2-2.5,3.5-6,4-9.5v-4c0-1-.5-2-1-3-.5-1-1-2-2-2.5l-.5-.5c-.5-.5-1.5-1-2-1.5-2-1-4.5-2-7-2h-3c-3,0-6,.5-9,1.5-2,.5-4,1.5-6,2-5,2.5-10,5-14.5,9-2,1.5-4,3.5-5.5,5.5,0,.5-1,1-1.5,1.5l-.5,1M271.6,445.9h-1c-.5,0-1-.5-1.5-1-1.5-1-2.5-2.5-3.5-4.5-2.5-5.5-1-12,2-17.5,2.5-4,5.5-8,9.5-11,3.5-3,7.5-5.5,12-7.5,2-1,4-1.5,6-2.5,2-.5,4.5-1,7-1s3.5,0,5.5,1c1.5.5,3,1.5,3.5,3,0,0,.5,1,.5,1.5v2-1.5c0-2-1-4-2.5-5s-3-1.5-4.5-2c-3-.5-6.5,0-9.5,0s-4,1-5.5,2c-1,0-2,1-3,1.5-5,2.5-9.5,5.5-14,9-4,3.5-7,7.5-9,12-2,4-3,9-1.5,13.5.5,1.5,1.5,3,2.5,4.5,1,1,2,1.5,3,2,1,0,1.5.5,2.5,1h1l.5.5Z"/>
</svg>